<?xml version="1.0" standalone="no"?><!DOCTYPE svg PUBLIC "-//W3C//DTD SVG 1.1//EN" "http://www.w3.org/Graphics/SVG/1.1/DTD/svg11.dtd"><svg t="1729245443381" class="icon" viewBox="0 0 1024 1024" version="1.1" xmlns="http://www.w3.org/2000/svg" p-id="16967" width="32" height="32" xmlns:xlink="http://www.w3.org/1999/xlink"><path d="M512 852.00000031a30 30 0 0 1 30 30v60a30 30 0 0 1-60 0v-60A30 30 0 0 1 512 852.00000031z m-240.40000031-99.6a30 30 0 0 1 0 42.43999969l-42.43999969 42.42a30 30 0 0 1-42.42-42.40000031l42.40000031-42.43999969a30 30 0 0 1 42.43999969 0z m523.24000031 0l42.42 42.43999969a30 30 0 0 1-42.40000031 42.42l-42.43999969-42.40000031a30 30 0 1 1 42.42-42.43999969zM512 231.99999969c154.63999969 0 280.00000031 125.35999969 280.00000031 280.00000031s-125.35999969 280.00000031-280.00000031 280.00000031-280.00000031-125.35999969-280.00000031-280.00000031 125.35999969-280.00000031 280.00000031-280.00000031zM141.99999969 482a30 30 0 0 1 0 60h-60a30 30 0 0 1 0-60h60z m800.00000062 0a30 30 0 0 1 0 60h-60a30 30 0 0 1 0-60h60zM229.16 186.74l42.42 42.40000031a30 30 0 1 1-42.42 42.43999969L186.74 229.16a30 30 0 0 1 42.40000031-42.42z m608.1 0a30 30 0 0 1 0 42.40000031l-42.40000031 42.43999969a30 30 0 1 1-42.43999969-42.42l42.42-42.42a30 30 0 0 1 42.42 0zM512 51.99999969a30 30 0 0 1 30 30v60a30 30 0 0 1-60 0v-60A30 30 0 0 1 512 51.99999969z" fill="#333333" p-id="16968"></path></svg>