<?xml version="1.0" standalone="no"?><!DOCTYPE svg PUBLIC "-//W3C//DTD SVG 1.1//EN" "http://www.w3.org/Graphics/SVG/1.1/DTD/svg11.dtd"><svg t="1729245467749" class="icon" viewBox="0 0 1024 1024" version="1.1" xmlns="http://www.w3.org/2000/svg" p-id="17180" width="32" height="32" xmlns:xlink="http://www.w3.org/1999/xlink"><path d="M822.784 547.29386667c-16.4864-126.464-19.968-125.952-151.04-150.528-6.9632-1.4336-12.4928-5.9392-12.4928-13.9264 0-7.5776 5.5296-13.0048 12.4928-14.0288 131.072-19.5584 133.5296-22.016 151.04-150.016 1.024-7.4752 6.4512-13.0048 14.0288-13.0048 7.4752 0 13.0048 5.5296 13.9264 13.5168 16.5888 126.464 21.504 124.928 150.528 149.504 7.4752 1.4336 13.0048 6.4512 13.0048 14.0288 0 7.9872-5.5296 12.4928-14.4384 13.9264-128.512 20.992-132.5056 23.552-149.0944 150.016-0.9216 7.9872-6.4512 13.0048-13.9264 13.0048a13.7216 13.7216 0 0 1-14.0288-12.4928M602.3168 238.76266667c-14.5408-78.9504-13.5168-81.92-97.4848-96.9728-4.5056-1.024-7.5776-4.096-7.5776-9.0112 0-5.12 3.072-7.4752 7.5776-8.4992 83.968-16.9984 82.944-18.944 97.4848-97.4848 0.9216-4.5056 3.4816-7.4752 8.4992-7.4752 4.5056 0 7.4752 2.9696 8.4992 7.4752 13.9264 78.5408 13.9264 80.4864 96.9728 97.4848 5.0176 1.024 7.9872 3.4816 7.9872 8.4992s-2.9696 7.9872-7.9872 9.0112c-83.0464 15.0528-83.0464 18.0224-96.9728 96.9728-1.024 5.0176-3.9936 7.5776-8.4992 7.5776-5.0176 0-7.5776-2.56-8.4992-7.5776M80.7936 600.74666667c0-171.008 95.5392-320.512 236.032-380.416 17.408-7.168 31.4368-6.144 39.424 2.9696 6.5536 7.9872 7.0656 20.992-0.512 36.4544-15.4624 31.5392-26.4192 87.04-26.4192 145.408 0 213.6064 137.0112 348.672 353.9968 348.672 52.9408 0 96.9728-8.4992 135.4752-23.04 14.0288-5.5296 26.0096-4.5056 32.4608 2.4576 7.5776 7.5776 9.0112 20.992 2.048 36.5568-65.536 142.336-201.0112 227.0208-370.4832 227.0208C244.736 996.82986667 80.7936 827.25546667 80.7936 600.74666667" fill="#ffffff" p-id="17181"></path></svg>